<svg width="89" height="24" viewBox="0 0 89 24" fill="none" xmlns="http://www.w3.org/2000/svg">
<path fill-rule="evenodd" clip-rule="evenodd" d="M23.5409 11.8956C23.5409 18.4653 18.2619 23.7911 11.7499 23.7911C5.57174 23.7911 0.503366 18.9973 0 12.8955H15.585V10.8956H0C0.503366 4.79382 5.57174 0 11.7499 0C18.2619 0 23.5409 5.32582 23.5409 11.8956ZM67.2545 21.6359C71.3401 21.6359 74.0198 19.4106 74.0198 16.059C74.0198 12.9488 72.0034 11.4742 68.9525 10.9647L66.2464 10.5089C64.1771 10.1604 62.7974 9.24873 62.7974 7.23782C62.7974 5.20011 64.3363 3.64499 67.2545 3.64499C70.0933 3.64499 71.5524 5.09284 71.7115 7.15738H73.7545C73.5953 4.42255 71.5258 1.98263 67.281 1.98263C63.0892 1.98263 60.7812 4.36891 60.7812 7.31827C60.7812 10.4553 62.877 11.9032 65.7423 12.3858L68.475 12.8148C70.7565 13.217 72.0299 14.1554 72.0299 16.1395C72.0299 18.4722 70.1463 19.9736 67.281 19.9736C64.3098 19.9736 62.4525 18.5258 62.2934 16.059H60.2772C60.4363 19.2765 62.877 21.6359 67.2545 21.6359ZM37.1348 21.2606H29.7063V2.38482H36.8695C40.0267 2.38482 42.2286 4.26166 42.2286 7.26465C42.2286 9.43643 41.0082 10.8843 39.0451 11.3669V11.4474C41.3797 11.9032 42.8122 13.5119 42.8122 16.0322C42.8122 19.2765 40.4511 21.2606 37.1348 21.2606ZM36.6042 10.6698C38.8594 10.6698 40.2389 9.43643 40.2389 7.50595V7.23782C40.2389 5.30735 38.8594 4.1008 36.6042 4.1008H31.6962V10.6698H36.6042ZM36.843 19.5446C39.3104 19.5446 40.8225 18.1772 40.8225 16.0859V15.8177C40.8225 13.6459 39.2839 12.3322 36.8165 12.3322H31.6962V19.5446H36.843ZM58.8803 21.2606H56.7578L55.1661 16.1395H47.7376L46.1459 21.2606H44.1295L50.258 2.38482H52.6722L58.8803 21.2606ZM51.558 4.44936H51.3988L48.2682 14.4503H54.662L51.558 4.44936ZM77.0083 21.2606V2.38482H89V4.12761H78.9982V10.6162H88.2041V12.3322H78.9982V19.5178H89V21.2606H77.0083Z" fill="white"/>
</svg>
