<svg xmlns="http://www.w3.org/2000/svg" viewBox="0 0 1920 1080"><defs><linearGradient id="linear-gradient" x1="266.1" y1="403.7" x2="565" y2="556.2" gradientUnits="userSpaceOnUse"><stop offset="0" stop-color="#f4f9ff"/><stop offset="1" stop-color="#d6e6fd"/></linearGradient><linearGradient id="linear-gradient-2" x1="1290" y1="404.7" x2="1543.2" y2="532.1" gradientUnits="userSpaceOnUse"><stop offset="0" stop-color="#f3f8ff"/><stop offset="1" stop-color="#d5e6fd"/></linearGradient><style>.cls-4{fill:#daeba2}.cls-8{fill:#a08a63}.cls-9{fill:#b3d77d}.cls-13{fill:#2d64ab}.cls-15{fill:#6295d5}.cls-20{fill:#f3f9be}.cls-22{fill:#407f3d}.cls-23{fill:#d5e6fd}.cls-24{fill:#d0e4ba}.cls-25{fill:#629f4d}.cls-26{fill:#95bfec}.cls-27{fill:#e8eee4}.cls-28{fill:#8ec063}.cls-29{fill:#144483}.cls-30{fill:#c7b48a}.cls-33{fill:#aeb67d}.cls-35{fill:#79ae58}.cls-39{fill:#5a4224}.cls-40{fill:#c5e1ef}.cls-41{fill:#f5fafd}.cls-42{fill:#94b87f}.cls-44{fill:#5884c3}.cls-45{fill:#518f45}</style></defs><g id="Layer_1"><g id="Generative_Object"><path class="cls-41" d="M200.4 703.8c11.6.3 23.6 1.1 35.3 1.4 9.9.3 70.6 5.7 74 4.2.8-.4 3-13.8 12-5.6-1.8 1.1-9 13.5-8.5 14.8 8.4 4 17.9 3.7 26.8 4.9 2.3 28.3 3.5 8.8 5.6 2.8 2.1-5.8 20-1.2 24.7-4.2 4.6-3-20.2-9 30.3-7 28.6 1.1 57.3 6.3 86 5.6-5.6 9.4-11.5 9.1 11.3 8.5 2.8 3.8.3 4.1-1.4 7-3.8 6.6-4 8.1-4.2 8.5-6.6 10.9-15.7 20.9-22.6 31.7l2.1 2.1c19.9.2 53.5 7.9 69.8 8.5-7.4 11.7 16.2 15.2 21.9 12.7 3.7-1.7 1.6-10.8 2.1-14.1 20.8-1 41.4-5.2 62-7.8l-24.7-41.6c-8.4 9.5-16.6 15-28.9 18.3-.7.2-1.6-.1-1.4 1.4H567v-2.8c4.2-.2 19.6-7.1 23.3-9.9 19.6-14.6-.5-16.8 23.3-15.5 40.2 2.2 35 6.1 83.2 0 .5 4.2-11.5 4-16.2 4.2 109.4 13.2 221.2 17.6 331.4 29.6 100.7 7.6 201.5 9.7 302.5 11.3.1 0-.4 2.8.7 2.8 19.6.3 27.5-2.8 28.9-2.8 83.2.8 166.4 2.2 249.6 0-3.5 5.9-12.6 16.9-10.6 18.3 59.3 5.8 118.7 15.2 178.4 16.9l2.1 42.3c19.1-4.1 39.2 2 59.2 0l.7-42.3c28-.9 56.7-4.4 84.6-7 0 46 .1 92.1 0 138.2-231.4 13.1-464.6 16.6-695.9-1.4-141.7-11-281.8-35.1-424.4-38.1-113.2-2.4-351.7 9.8-473.8 16.9-100.5 5.8-200.8 14.2-301 22.6v-77.5l124.1-16.2C96 840.1 54.4 842.6 13 842v-60.6c39.8 3.8 1.9-15 4.2-26.1 1.1-5.1 12.2 6.8-4.2-17.6v-11.3c0-.1 2.8.4 2.8-.7-1.6-2.2-2.8-1.9-2.8-2.1v-21.1c62.3-.6 125.1-.1 187.5 1.4Z"/><path class="cls-40" d="M1908 939.2c-.1 47.9.1 95.9 0 143.8H12.8c-.1-47.9.1-95.9 0-143.8 100.2-8.3 200.6-16.7 301-22.6 122.1-7.1 360.5-19.3 473.8-16.9 142.6 3 282.7 27 424.4 38.1 231.3 18 464.4 14.5 695.9 1.4Z"/><path class="cls-23" d="M12.8 861.7V842c41.3.6 83-1.9 124.1 3.5L12.8 861.7Z"/><path class="cls-29" d="M12.8 781.3v-43.7c16.5 24.4 5.3 12.5 4.2 17.6-2.4 11.1 35.6 29.9-4.2 26.1Z"/><path class="cls-23" d="M12.8 726.3v-2.8c0 .2 1.2-.1 2.8 2.1 0 1.1-2.8.6-2.8.7ZM1273.4 661.5c5.9 6.6-8.7 17.9-15.5 31.7.3.7 14 3.5 15.5 3.5-.9 1.9-1.8 3.8-2.8 5.6-.2.4.2 1.1 0 1.4-5.9 9.7-10.4 16.2-15.5 26.8-3.3 6.9-6.5 14.4-11.3 20.4l2.1 2.1c22.6 1.9 44.9 6.5 67.7 7 1.2 0 .6 2.8.7 2.8v9.9c-100.9-1.5-201.7-3.7-302.5-11.3-110.1-12-221.9-16.4-331.4-29.6 4.7-.2 16.8 0 16.2-4.2 20.6-2.6 41.4-8.1 62-11.3-.6 3.3 1.5 3.1 4.9 2.8 17.3-1.5 49.9-9.7 69.1-12.7 145.6-22.4 293.2-39.6 440.6-45.1Z"/><path d="M345.6 726.3c-2.2 6-3.4 25.4-5.6-2.8 3.6.5 3.1-.6 5.6 2.8Z" style="fill:#0c0e0b"/><path class="cls-41" d="M1276.2 655.9v4.2c-1.3 0-1.5 1.4-2.8 1.4-147.5 5.5-295 22.7-440.6 45.1-19.2 3-51.8 11.2-69.1 12.7-3.5.3-5.6.5-4.9-2.8 14.6-2.3 29.1-4.8 43.7-7 52.2-8 104.2-17 156.5-24 81.1-10.7 162.3-18.9 243.9-25.4 24.3-1.9 49-2.1 73.3-4.2ZM1549.8 633.3c-1.2-1.1-1.4-1.3-2.1-2.8-59.9 4.8-120.1 9.8-179.8 16.9-1-1.8-1.9-3.9-2.8-5.6 9.5-3.7 21.3 2.2 24.7-5.6 3.2 7.7 26.7-1.3 28.2-1.4.7 0 2.3 2.5 14.1 1.4 16.1-1.4 116.3-10.4 122-12.7 3.4 4-2 6.4-4.2 9.9Z"/><path class="cls-23" d="M1655.6 612.2c-13.8 17.7-25.1 37.4-38.1 55.7 7.5 5.8 18.9-.1 24-.7 4.9 2.7-.1 5.9 0 6.3.8 2.4 8.4 2.1 2.8 9.9.3 1.3 4.2.5 4.2.7.5 2.1-1.8 9.9-2.8 12-2 4.2-37.1 51.8-52.2 76.8-83.2 2.2-166.4.8-249.6 0v-11.3c11.4-.5 39.9-6.6 54.3-8.5 1.3-1.5-10.6-18.4-12-21.1-4.8-9.4-9.3-18.8-14.1-28.2-1.1-2.1-1.8-.8-2.8-2.8-.5-1 .3-4.9 0-7 27.4 7.5-1.8-15.5-7.1-28.2-.7-1.6-1.3-7.4-1.4-9.9 7.8-3.4 16.8 10.3 7.1-8.5 59.7-7.1 119.9-12.1 179.8-16.9.7 1.5.9 1.7 2.1 2.8.2.2 2.7 4 2.8 4.2v2.8c-.6 4.3-5.6 11.1-8.5 14.8 7.5 3.2 26.1-1.4 28.2 6.3 3 11 2.9 20.8 4.2-2.8 3.7-.9 24.5-3.7 25.4-6.3-7.4-9.8-7-23.9-11.3-34.5l64.9-5.6Z"/><path d="M1576.6 658.7c-1.3 23.6-1.2 13.9-4.2 2.8 2.3-2.1.9-2 4.2-2.8Z" style="fill:#1d1a10"/><path class="cls-41" d="M1432.1 643.2c3-.4 4 5.4 1.4 5.6-4.2.3-4.2-5.2-1.4-5.6Z"/><path class="cls-25" d="M596.6 685.5c-19 4.1-20.8 23.9-34.5 19.7.6 10.3-36.8 21.7-38.8 20.4-.4-.3-.2-8.2-4.9-4.9-5 3.4 5.2 7.8-20.4 8.5-22.8.6-16.9.9-11.3-8.5 2.2-3.7 15.7-25.8 16.9-26.8 7.7-5.9 36.4-4.1 34.5-12.7 8.6 13.5 6.5-.8 7.1-1.4 2.9-3.3 27.9-6.3 16.2-12.7.2 0-.5-2.4.7-2.8 3-.7 4 1.6 4.9 1.4 1-.2.9 6.3 16.9-9.9 1.8 3.8 12.4 28 12.7 29.6Z"/><path class="cls-8" d="M567 753.1v2.8c-1.8 0-2.4 3.1-4.9 2.8-8.8-.8-44.5-12.8-50.1-18.3-.1-.1-1.2-2.1-1.4-2.8 11.2-.2 8-4 8.5-4.2 6.1 9.8 38.6 20.2 47.9 19.7Z"/><path class="cls-39" d="M565.6 785.6c-.6 3.3 1.6 12.4-2.1 14.1-5.7 2.5-29.3-1-21.9-12.7 7.4.2 16.4-1 24-1.4Z"/><path class="cls-45" d="M510.6 737.6c.2.7 1.3 2.7 1.4 2.8-.6 7.5-14.2 6.6-19.7 4.2.2-.4.5-1.9 4.2-8.5 12.8-2.6 11.3 1.5 14.1 1.4Z"/><path class="cls-28" d="M565.6 609.3c14.4 31.2 9.3 14.7 4.2 21.9-.7 1 9.9 19 11.3 21.9L567 665.8c-.9.2-2-2.1-4.9-1.4-1.3.4-.5 2.7-.7 2.8-21.1 8.7-42 17.9-64.9 19.7 5.6-17.6 20.9-26.6 19.7-40.9 11.9 13.7 39.8-2.5 33.8-20.4 14.8-26.6 5.1-8.7 13.4-12 .6-.2 1.1-2.6 2.1-4.2Z"/><path class="cls-9" d="M565.6 609.3c-1.1 1.7-1.5 4-2.1 4.2-8.3 3.3 1.4-14.6-13.4 12 5.9 17.9-21.9 34.1-33.8 20.4 8.9-22.3.8-8.9 1.4-16.2.5-5.4 9.3-15.4 11.3-19 3.1 18.5 11 4.4 2.8-2.8 2.3-4.1 14.9-32.4 17.6-32.4 6.7 10.6 11 22.5 16.2 33.8Z"/><path class="cls-4" d="M503.5 693.9c-3.6-2.7-8.5-.4-9.9-2.1-1-1.3 2.7-4.7 2.8-4.9 22.9-1.8 43.8-11 64.9-19.7 11.7 6.4-13.3 9.4-16.2 12.7-.5.6 1.6 14.9-7.1 1.4 1.8 8.6-26.8 6.8-34.5 12.7ZM583.9 655.9c-16 16.1-15.9 9.6-16.9 9.9l14.1-12.7c0 .2 1.5 0 2.8 2.8Z"/><path class="cls-24" d="M528.9 610.8c1.4-2.6 2.7-2.6 2.8-2.8 8.1 7.2.3 21.3-2.8 2.8Z"/><path class="cls-22" d="M565.6 785.6c-7.5.4-16.6 1.7-24 1.4-16.3-.5-49.9-8.3-69.8-8.5l-2.1-2.1c6.8-10.9 16-20.8 22.6-31.7 5.5 2.4 19.2 3.2 19.7-4.2 5.5 5.5 41.3 17.5 50.1 18.3 2.6.2 3.1-2.8 4.9-2.8h5.6c.4 0 3.6 7.8 1.4-1.4 12.3-3.3 20.5-8.8 28.9-18.3l24.7 41.6c-20.6 2.5-41.2 6.7-62 7.8Z"/><path d="M572.6 756c-.1-1.5.7-1.2 1.4-1.4 2.2 9.2-1 1.4-1.4 1.4Z" style="fill:#91976f"/><path class="cls-41" d="M564.9 772.9c4.5-1.7 7.1 5.5 2.8 7-4.5 1.7-7.1-5.5-2.8-7ZM514.1 764.4c3.8-.9 4.8 6.4 1.4 7-2.4.5-5.7-6-1.4-7Z"/><path style="fill:#a6bca1" d="m595.9 765.8.7 2.1-2.1.7-.7-.7 2.1-2.1z"/><path class="cls-45" d="m591 693.9 22.6 33.8c-23.7-1.3-3.7.9-23.3 15.5-3.7 2.8-19.1 9.7-23.3 9.9-9.3.5-41.8-9.9-47.9-19.7.2 0-.5-2.3.7-2.8 2.1 4.4 33.9-10 40.9-14.1 13.5-7.8 22.3-19.6 28.2-24 .1 0 1.4 1.9 2.1 1.4Z"/><path class="cls-41" d="M540.9 736.2c3.6-.5 7.4 6.7 2.8 8.5-5.4 2.1-8.4-7.7-2.8-8.5Z"/><path class="cls-4" d="M591 693.9c-.7.5-2-1.5-2.1-1.4-5.9 4.4-14.7 16.2-28.2 24-7 4.1-38.8 18.5-40.9 14.1-1.2.6-.5 2.7-.7 2.8-.5.2 2.7 4-8.5 4.2-2.8 0-1.3-4-14.1-1.4 1.7-3 4.2-3.3 1.4-7 25.7-.7 15.5-5 20.4-8.5 4.7-3.3 4.5 4.7 4.9 4.9 2 1.3 39.4-10.1 38.8-20.4 13.8 4.2 15.5-15.7 34.5-19.7.4 1.8.9 3.2 1.4 4.9-.5 1.9-2.6.5-7.1 3.5Z"/><path d="M562.1 708c3.6-1.9 4.1 2.5 1.4 2.8-.2 0-2.8-2.1-1.4-2.8Z" style="fill:#30692c"/><path class="cls-13" d="M1590.7 617.8c4.3 10.6 3.9 24.7 11.3 34.5-.8 2.7-21.7 5.5-25.4 6.3-3.3.8-2 .7-4.2 2.8-2.1-7.7-20.7-3.1-28.2-6.3 2.8-3.7 7.9-10.5 8.5-14.8 23.2-9.3 21.4.4 42.3 4.9-18.5-10.7-21.4-14.5-42.3-7.8 0-.2-2.6-4.1-2.8-4.2 2.3-3.5 7.6-5.9 4.2-9.9 4.6-1.9 4.6-9.9 7.8-11.3 20.9 5.3 16-26.1 28.9 5.6Z"/><path d="M1552.6 640.4v-2.8c20.9-6.7 23.8-2.9 42.3 7.8-20.9-4.6-19.1-14.3-42.3-4.9Z" style="fill:#818d98"/><path d="M1584.3 615c6.5 5.8-23.9 14.8-24.7 13.4-3.5-6.6 21.9-4.3 24.7-13.4Z" style="fill:#a5a6aa"/><path class="cls-8" d="M1733.1 667.1c.4-.1 1 .1 1.4 0 6.9 12.9 9.9 9.4 10.6 9.9 43.6 33.1 107.8 55.1 162.9 55v18.3c-13.4.4-26-4.7-38.8-7-.5 0-2.9 2.8-9.9 1.4-4-.8-28.1-9.9-40.2-12.7 11.1-5.6-4.4-11.9-1.4 0-10-2.2-8.3-3.7-23.3-1.4-14.5-19.9-61.6-31.2-78.3-57.8 5-3.5 11.3-3.9 16.9-5.6Z"/><path class="cls-45" d="M1908 609.3c-13.6-.5-24.8-4.3-36.7-8.5l36.7-42.3v50.7Z"/><path class="cls-4" d="M1908 538.9v19.7l-36.7 42.3c-.8-.3-5.6 3.5-12.7-7 18.4-15.1 34.3-34.6 46.5-55 .5.2 1.8-.1 2.8 0Z"/><path class="cls-8" d="M1871.3 600.9c11.9 4.1 23.1 8 36.7 8.5v11.3c-10.3 1.6-42.6-7-49.4-12.7-2.4-2-3-6.5-5.6-8.5.2-.2 2.5-4 2.8-4.2.4-.3 2.4-1.1 2.8-1.4 7.1 10.6 11.9 6.8 12.7 7Z"/><path class="cls-26" d="M1908 521.9v16.9c-1-.1-2.3.2-2.8 0-4.3-1.7-21.8-22.6 2.8-16.9Z"/><path class="cls-20" d="M1837.4 285.1c-47 58.9-64.1 56.6-108.6 81.8-3.5 2-8.5 2.1-9.9 4.2-10.6-1.5 6.7-17.7 9.9-25.4.6-.2 2.9 2.5 6.3 1.4 39.2-12.5 79.5-39.1 93.8-78.9.1.2 2.3-.8 4.2 2.1 0 2.4 3.8 14.1 4.2 14.8Z"/><path d="M1793.7 194.9c-7.5-5.3-2.5-9.9-7.8-9.9-1.4 0-.8 10.7-.7 11.3-26.4 11.2 6.6-10.1-22.6-30.3 3.2-4 16.6 10 27.5-21.9 11.1 15.3 7 22.1 30.3 21.9-13.7 13.7-17.7 12.9-11.3 33.8-.4.7-14.8-4.5-15.5-4.9Z" style="fill:#faf65b"/><path class="cls-27" d="M1793.7 194.9c-3.6-1.4-1.5 17.8-7.1 9.2-.2-.3-1-6.1-1.4-7.8-.1-.6-.7-11.3.7-11.3 5.3 0 .2 4.6 7.8 9.9Z"/><path class="cls-39" d="m1823.3 808.1-.7 42.3c-20 2-40.1-4.1-59.2 0l-2.1-42.3c20.2.6 41.8.6 62 0Z"/><path class="cls-4" d="M1716.2 654.5c-4.3 9.1-8.7 1.1-4.2 16.9l-63.5 12.7c0-.2-3.9.6-4.2-.7 5.6-7.8-2-7.5-2.8-9.9-.1-.4 4.9-3.6 0-6.3 19.8-2.2 39.5-5.5 59.2-7.8 1.3-6.3-35.8-51.6-36.7-55.7-.2-.8-.1-2 0-2.8.7-4.3 4.2-4.5 7.1-8.5 11.7 22.9 29 42.3 45.1 62Z"/><path class="cls-30" d="m1719 654.5 14.1 12.7c-5.6 1.7-11.9 2.2-16.9 5.6l-4.2-1.4c-4.5-15.8 0-7.8 4.2-16.9h2.8Z"/><path class="cls-27" d="M1819.1 732c-.4-.1-1 .1-1.4 0-3-11.9 12.5-5.6 1.4 0Z"/><path d="M1731.7 512.1c7.2 7.1 11.4 17.2 21.9 19.7 6.9 15 16 12.1 16.9 12.7 9.8 6.7 17 17.5 30.3 18.3-8.6 21.4 9.5 8.1 0 21.1-22.4-12-80.8-55.2-93.1-76.1 5.6-1 10.7-4.2 11.3-4.2.5 0 3.1 2.3 9.2 1.4.5 9.3 3 6.6 3.5 7Z" style="fill:#a5996a"/><path class="cls-33" d="M1824.8 582.6c-.7 1.1-7.6 4.5-7.1 8.5-6.8-2.9-7.6-2-16.9-7 9.5-13.1-8.6.3 0-21.1 19.6 18.2 1.9-2 7.8-2.8 8.8 9.5 9.3 2.4 9.9 2.8 1.7 1.2 0 5.7.7 6.3 4.9 4.8 14.7-1.1 5.6 13.4Z"/><path class="cls-8" d="M1855.8 595.2c-.3.2-2.6 4.1-2.8 4.2-3.7 2.7-9.4 3.9-9.9 4.2-8.1-4.3-17-9.1-25.4-12.7-.6-3.9 6.4-7.4 7.1-8.5 13.4-2.7 23.2 2.4 31 12.7Z"/><path class="cls-25" d="M1882.6 457.1c8.9 12.4 16.3 25.8 25.4 38.1V522c-24.7-5.7-7.1 15.2-2.8 16.9-12.3 20.4-28.1 39.9-46.5 55-.4.3-2.4 1.1-2.8 1.4-7.9-10.3-17.6-15.3-31-12.7 9.1-14.5-.8-8.5-5.6-13.4-.6-.6 1-5.1-.7-6.3-.5-.4-1.1 6.7-9.9-2.8-5.8.8 11.9 21-7.8 2.8-13.3-.8-20.6-11.6-30.3-18.3-.9-.6-10 2.3-16.9-12.7-10.4-2.5-14.6-12.6-21.9-19.7 5.1-.4-.6-7.5.7-8.5 4.8-3.8 60.4-7.5 111.4-47.9 5.7-4.5 17-19.3 18.3-19.7 8-2.4 2.3 12.9 16.9-2.8 13.3 4.4-4.7 18.2 0 24 .3.4 3.3-.3 3.5 0Z"/><path class="cls-35" d="M1775.4 520.5c.2 1.3 3.4 4 0 9.9-10.3 3.7-17.4 5.6-21.2-7 0-1.7-3.1-1.6 2.8-8.5 9.1-5.4 14.2-3.7 18.3 5.6Z"/><path class="cls-28" d="M1824.8 505c-3.9-2-9.8 6.7-12.7-4.2 5.2-9.3 8.4-13-2.1-1.4-.3-17.2 23.3-7 14.8 5.6ZM1775.4 530.4c-4.5 7.7-21.5 9.1-21.2-7 3.8 12.6 10.8 10.8 21.2 7ZM1775.4 520.5c-4.2-9.3-9.2-11.1-18.3-5.6 9.2-10.6 16.4-6.2 18.3 5.6Z"/><path class="cls-9" d="M1812.1 500.8c2.9 11 8.8 2.2 12.7 4.2-5.3 7.9-14.6 2.4-15.5-.7-1.4-4.5 2.7-3.3 2.8-3.5Z"/><path class="cls-4" d="M1858.6 607.9c-17.7 7-47.8 38-67 33.8 8.9 4.1-41 20.4-57.1 25.4-.4.1-1-.1-1.4 0l-14.1-12.7c43.2-15.2 85.9-26.4 124.1-50.7.5-.3 6.2-1.5 9.9-4.2 2.6 1.9 3.2 6.4 5.6 8.5Z"/><path class="cls-22" d="M1858.6 607.9c6.8 5.7 39 14.3 49.4 12.7V732c-55 .1-119.2-21.9-162.9-55-.6-.5-3.7 3.1-10.6-9.9 16.1-5 66-21.3 57.1-25.4 19.1 4.2 49.2-26.8 67-33.8Z"/><path class="cls-25" d="M1845.2 653c12.7-4.4 19.7 18.9 0 4.2-4.8.4-2.9 21.1 12 7.8-10.2 22-25.5-7.3-12-12Z"/><path class="cls-41" d="M1764.8 668.5c3.4-2.7 7.6 5.9 2.8 7-3.2.8-4.9-5.4-2.8-7Z"/><path class="cls-27" d="M1888.9 657.3c2.8-.6 5 4.2 2.8 5.6-3.2 2.2-7.3-4.7-2.8-5.6Z"/><path d="M1748.6 399.3c-2.5 1.7-9.6 9.6-10.6 9.9-9.5 2.3-27.3-14.1 9.2-35.2 1.7.7 6.1-1.6 8.5 2.1-13.1 4.7-17.6 13.7-7.1 23.3Z" style="fill:#b2d79b"/><path d="M1693.6 469.8c-7.1-1.4-13.3-5.3-19.7-8.5-.3-2.9 2-4.5 4.2-5.6 1.9-1 19.5-6.1 20.4-5.6 6.3 3-4.3 17.9-4.9 19.7Z" style="fill:#b5d3f1"/><path class="cls-30" d="M1704.9 490.9c2.1.2 4.2 3.9 7.1 1.4l7.1 11.3c-.6 0-5.7 3.3-11.3 4.2h-1.4c-4.2-5.4-3.8-10-11.3-12.7 3.8-4.8-2.3-4.5-2.8-9.9 14.9.9 3.7 3.6 6.3 7 .2.3 6-1.4 6.3-1.4Z"/><path class="cls-42" d="M1692.2 478.2c2.2.3 2.6 2.7 2.8 2.8 0 1.7-3 2.7-2.8 4.2.5 5.3 6.6 5.1 2.8 9.9-1.5-.6-7.1.9-12.7-1.4.2-.4-.1-1 0-1.4l1.4-4.2c10.8-7.8.4-7.7 8.5-9.9Z"/><path class="cls-28" d="M1875.5 355.6c-1.4-.8-18-7-19-7-10.5-.3 16.5 35.3 26.1 53.6-4.2 5.5-9.5 10.3-14.1 15.5-3.7-5.4-4.8-13.5-11.3-16.2-1.9-25.1-1.2-13.4-8.5 2.8-.3 2.4 13.6.9-5.6 10.6-1.1-2-2.8-3.4-3.5-5.6-1.1 4.2-3.2 2.6-6.3 2.8-.4 0-4-4.6-7.1 1.4-32.1-15.3-29.5-23.3-31-24.7-9.6-8.8-23.1-19.2-19.7-10.6-1.5-.9-6.6-4.2-7.1-4.2 4-1.1 2.5-5.2 2.8-5.6 1.5-1.9 13.6-6.8 1.4-7.8 4.1-14.3-10.7-9.6-4.2 3.5-7 0-9.2 4.9-4.2 9.9l-4.2 2.1c5.8 6.8-3.6 11.5 0 18.3-4.3 3.5-7 2.1-11.3 4.9-10.6-9.5-6-18.5 7.1-23.3-2.3-3.7-6.8-1.4-8.5-2.1-5.9-2.6-11.1-5-18.3-7 44.5-25.2 61.6-22.8 108.6-81.8 9.9 16.8 35.7 52.1 40.9 68.4.3.9-3 .1-2.8 2.1Z"/><path class="cls-41" d="M1768.4 364.1c.1.2 3.4.7 2.8 4.2-.3.4 1.2 4.6-2.8 5.6-1.4-.2-2.8.1-4.2 0-5-5-2.8-9.9 4.2-9.9Z"/><path class="cls-9" d="M1835.3 297.8c3.4 6.1 13.3 3 10.6 14.8-.2.7-5.1 6.1-6.3 6.3-2.5.6-14.4-5.7-14.8-6.3-.5-.8 6.7-14.5 10.6-14.8Z"/><path class="cls-27" d="M1771.2 368.3c.6-3.5-2.7-4-2.8-4.2-6.5-13.2 8.3-17.8 4.2-3.5 12.2 1 0 5.9-1.4 7.8Z"/><path class="cls-41" d="M1833.2 412c-1.7 13.2-6.5 1.7-7.1 1.4 3-6 6.6-1.4 7.1-1.4Z"/><path class="cls-9" d="M1829 268.2c-14.3 39.8-54.6 66.5-93.8 78.9-3.4 1.1-5.7-1.6-6.3-1.4-23 6.7-31.6 21.4-15.5-11.3V333c11.6-10 24.6-51.1 40.9-58.5 1.1-2.2-3.1-2.3-2.8-2.8 4.1-6.5 26.6-47.1 28.9-48.6 22.7-15.3 39.8 30.6 48.6 45.1Z"/><path class="cls-4" d="M1733.8 328.8c10.2 15.5 4 7.1 1.4 7-3 0-.5 4.8-.7 4.9-8.6 5.8-2.9-12.3-.7-12Z"/><path class="cls-20" d="M1791.6 293.6c3.6.5 4.6 3.3 1.4 2.8-.5 0-2.9-2.3-1.4-2.8Z"/><path class="cls-4" d="m1888.2 410.6-11.3.7c11.2 2.7.5 12.3 12.7 3.5 1.5 3.4 10.6 26.2 9.9 27.5-1.4 2.5-8.2-9.4-16.9 14.8-.2-.3-3.2.4-3.5 0-4.7-5.7 13.3-19.6 0-24-14.6 15.7-9 .4-16.9 2.8-1.3.4-12.7 15.2-18.3 19.7-50.9 40.4-106.6 44.1-111.4 47.9-1.3 1 4.4 8-.7 8.5-.5-.5-3 2.3-3.5-7-6.1.9-8.7-1.4-9.2-1.4l-7.1-11.3c10.8-6.5 33.8-1 31.7-14.1 11.7 10.1 47.8-13.1 71.9-18.3 21.5-10.2 37.5-24.8 52.9-42.3 4.6-5.2 9.9-10 14.1-15.5 1.5 2.8 4.3 5.6 5.6 8.5Z"/><path class="cls-42" d="M1888.2 410.6c1.4 2.9 1.3 4 1.4 4.2-12.2 8.8-1.5-.8-12.7-3.5l11.3-.7Z"/><path class="cls-35" d="M1876.2 413.4c.8-.3 3.3 7.7 12 12-6.9 6.5-4.1-1.4-9.2 3.5 1.4-5.7-7.5-6.7-7.8-7.8 0-.4 4.5-7.6 4.9-7.8Z"/><path class="cls-20" d="m1759.2 488.1.7 2.1-2.1.7-.7-.7 2.1-2.1z"/><path class="cls-25" d="M1641.5 667.1c-5.1.6-16.5 6.5-24 .7 13-18.3 24.3-38 38.1-55.7 2.5-3.1 4.9-6.4 8.5-8.5.9 4.1 38 49.3 36.7 55.7-19.8 2.2-39.4 5.6-59.2 7.8Z"/><path class="cls-22" d="M1716.2 672.8c16.6 26.6 63.7 37.9 78.3 57.8 15-2.3 13.3-.8 23.3 1.4.4.1 1-.1 1.4 0 12.1 2.8 36.2 11.9 40.2 12.7 6.9 1.4 9.4-1.5 9.9-1.4 12.7 2.4 25.4 7.4 38.8 7V801c-27.9 2.7-56.6 6.2-84.6 7-20.2.6-41.8.6-62 0-59.6-1.7-119.1-11.2-178.4-16.9-2.1-1.5 7-12.5 10.6-18.3 15.1-25 50.2-72.6 52.2-76.8 1-2.1 3.3-9.9 2.8-12l63.5-12.7 4.2 1.4Z"/><path class="cls-25" d="M1721.8 727.8c10.3 10.8-1.5 14 2.8 16.9-15.8 11.8-21.6-23.3-2.8-16.9Z"/><path class="cls-42" d="M1724.6 744.7c-4.3-2.9 7.5-6.1-2.8-16.9 8.3 2.8 10 11.5 2.8 16.9Z"/><path class="cls-41" d="M1667.5 726.3c3.3.4.9 6.3-1.4 2.8-.9-1.4 1.3-2.8 1.4-2.8Z"/><path class="cls-25" d="M1856.5 747.5c13.6-2.7 16.4 21.1 2.8 21.1s-12.7-19.2-2.8-21.1Z"/><path class="cls-22" d="M1858.6 753.1c3-1 7.2-2.4 8.5 3.5 3.2 15.1-27.1 2.5-8.5-3.5Z"/><path class="cls-22" d="M1858.6 753.1c-5.4 2.6-4.7-4.4.7-2.8 1.1.3-.6 2.8-.7 2.8Z"/><path class="cls-4" d="M1695 495.2c7.5 2.7 7.1 7.2 11.3 12.7-12 1.9-18.7 5.7-32.4 4.2-1.1-.1-3 3.4-4.2-2.1 2.9-4.5 11.5-13 12.7-16.2 5.6 2.3 11.2.9 12.7 1.4Z"/><path class="cls-28" d="M1747.2 373.9c-36.5 21.1-18.7 37.5-9.2 35.2 1-.2 8.1-8.2 10.6-9.9 4.3-2.9 7-1.4 11.3-4.9-3.6-6.8 5.8-11.5 0-18.3l4.2-2.1c1.4.1 2.9-.2 4.2 0 .4 0 5.6 3.3 7.1 4.2 6.1 3.8 19.1 20 24.7 26.8 12 10 32.9 16.5 42.3 22.6.3.2-.6 4.9 2.8 5.6 7.2 1.5-2.3-3.1 2.1-10.6-9.2-6.3-4-7.3-4.2-7.8 19.2-9.7 5.3-8.2 5.6-10.6 7.3-16.2 6.5-27.9 8.5-2.8 6.5 2.7 7.6 10.8 11.3 16.2-15.4 17.5-31.3 32.1-52.9 42.3-24.1 5.3-60.2 28.4-71.9 18.3 2 13.1-20.9 7.6-31.7 14.1-2.9 2.5-4.9-1.2-7.1-1.4.4-8.1-8.6-9.1-9.9-9.9-.2-.1-.6-2.6-2.8-2.8 2.5-3.2.8-6.8 1.4-8.5.7-1.8 11.2-16.8 4.9-19.7-1-.5-18.5 4.7-20.4 5.6l-4.2-4.2c1.5-3.8 2-7.2 4.2-11.3 12.6-23.6 29.6-44.7 40.9-69.1 1.4-2.1 6.3-2.2 9.9-4.2 7.2 2.1 12.4 4.4 18.3 7Z"/><path class="cls-33" d="M1826.2 413.4c.6.3 5.4 11.8 7.1-1.4 3.1-.2 5.3 1.4 6.3-2.8.7 2.3 2.4 3.6 3.5 5.6.3.5-4.9 1.5 4.2 7.8-4.4 7.5 5.1 12.1-2.1 10.6-3.4-.7-2.6-5.5-2.8-5.6-9.4-6-30.3-12.6-42.3-22.6-5.5-6.8-18.6-23-24.7-26.8-3.4-8.6 10.2 1.8 19.7 10.6 1.5 1.4-1.1 9.4 31 24.7Z"/><path d="M1704.9 490.9c-.3 0-6.1 1.7-6.3 1.4-2.7-3.5 8.5-6.1-6.3-7-.1-1.6 2.8-2.5 2.8-4.2 1.3.8 10.2 1.7 9.9 9.9Z" style="fill:#e0dab7"/><path class="cls-41" d="M1767.7 424.7c3.3.4.9 6.3-1.4 2.8-.9-1.4 1.3-2.8 1.4-2.8Z"/><path class="cls-9" d="M1747.9 445.8c13.5-3.7 15.8 17.3 4.2 18.3-10.4.9-11.6-16.3-4.2-18.3Z"/><path class="cls-28" d="M1749.3 448.6c.7-.3 7.6 4.5 7.8 4.9 3.5 12.7-21.8 1.6-7.8-4.9Z"/><path class="cls-25" d="M1707.7 507.8c12.3 20.9 70.7 64.2 93.1 76.1 9.4 5 10.2 4.2 16.9 7 8.3 3.6 17.3 8.4 25.4 12.7-38.2 24.4-80.9 35.6-124.1 50.7h-2.8c-16.1-19.8-33.4-39.1-45.1-62 .6-.8 4.8-1.1 1.4-5.6l-45.1-2.1 46.5-72.6c13.7 1.4 20.4-2.3 32.4-4.2h1.4Z"/><path class="cls-41" d="M1732.4 609.3c4.5-1.7 7.1 5.5 2.8 7-4.5 1.7-7.1-5.5-2.8-7ZM1755 593.8c1.7.4 3.2 4.5 1.4 5.6-4.8 3.1-6.1-6.8-1.4-5.6Z"/><path class="cls-24" d="M1642.2 569.9c1.2 1 1.1 3.2 0 4.2-.2.2-3.6-2.3 0-4.2Z"/><path class="cls-15" d="M134.1 584c-2.6 7.3-1.5 11-1.4 17.6-16.6 7.1-4.9 29.9-21.2 12.7 11.8-3.7-3.9-6.1.7-14.8-6.3 3.9-5.9-1.9-2.1-7 .4.1.9 0 1.4 0 8.1.8 15-7.2 22.6-8.5Z"/><path class="cls-41" d="M144 567.1c-2.3 4.7-9.1 14.9-9.9 16.9-7.6 1.2-14.5 9.2-22.6 8.5 9.8-10.5 21.7-18.8 32.4-28.2 2.2 2.3 0 2.7 0 2.8Z"/><path class="cls-13" d="M327.3 677c11.1-10.1 5.7-1.5 12.7-5.6 4.1-2.4 6.6-4.9 5.6-9.9.4-.8-1.9-4.1 4.2-8.5 2.9 8.6 1.3 13.4 2.8 14.8 2.5 2.3 3.6-2 5.6-2.1 1.6 0 4.8-.2 4.9 0 4.2 3.7-8.4 12.1-9.2 12.7-.9-8-5.7 2-10.6 4.2-8.6 3.9-32.6 2.9-21.9 8.5l2.1 9.9c8.2-.9 20.3-6.9 24.7 2.8-7.7-2.1-19-4.7-26.8 0-9-8.1-11.2 5.3-12 5.6-3.4 1.5-64.2-3.9-74-4.2.7-1.5 1.9-2.8 2.8-4.2 8.4 1.6 15.9 5 24.7 4.2 18-1.5 19.2-23.2 23.3-36.7 1.9-6.2 4.1-7.3 4.2-7.8.4-1.3-7.8-5.4 7.8-23.3 4.8 16.4 14.1 28.7 14.8 30.3 1 2.2-3.8 2-1.4 7 8.7 18.1 12.3 5 15.5 2.1Z"/><path class="cls-29" d="M348.4 703.8c7.5 2 16.3 11.5 49.4 7 .9 1.5 2.2 2.6 2.8 4.2-50.5-1.9-25.7 4.1-30.3 7-4.7 3-22.6-1.6-24.7 4.2-2.5-3.4-2-2.3-5.6-2.8-8.9-1.2-18.4-1-26.8-4.9-.5-1.3 6.7-13.7 8.5-14.8 7.8-4.7 19.1-2.1 26.8 0Z"/><path class="cls-13" d="M65 593.8c-.2 0 .9-3.4-2.1-2.8-1.9 2.2-.7 2.8 2.1 2.8.2 0-.6 2 3.5 1.4.4-7.6 3.1-1.3 12-12 .7-.9-4.6-1.9 12-17.6 2 5.6 13.2 25.4 17.6 26.8-3.8 5.2-4.2 10.9 2.1 7-4.6 8.7 11.1 11.1-.7 14.8 16.3 17.2 4.6-5.6 21.2-12.7 0-6.6-1.2-10.3 1.4-17.6.7-2 7.6-12.2 9.9-16.9 1.9 6.2 8.1 13.3 8.5 14.1 2.8 6.1 11.2 27.2 8.5 31.7 19 21.9 1.5 3.9 0 12.7-.2 1.1 13.9 17 14.1 18.3.4 2.8-10.8-3.7 8.5 22.6-11 5.2 14.7 26.6 16.9 37.4-62.4-1.6-125.2-2-187.5-1.4V593.9c8 2.1 2.1 11.9 7.1 9.2 4.7-2.6 2.3-9.3-1.4-12.7 5.5-6.5 22.3-19 12.7-22.6l14.8-20.4c6.2 10.7 8.2 22.7 9.2 24.7 1.1 2.2 20.3 21.8 9.9 21.9Z"/><path class="cls-41" d="M62.9 602.3c4.7-.7 6.8 9 1.4 9.9-5.2.8-6.4-9.2-1.4-9.9Z"/><path class="cls-15" d="M38.9 658.7c1.1-.6 6-.9 6.3 2.1.7 5.8-10.9.4-6.3-2.1Z"/><path class="cls-44" d="M133.4 626.3c3.7-.2.9 7.2-1.4 7-3.8-.2-.9-6.9 1.4-7Z"/><path class="cls-23" d="M85.5 616.4c3.1.2 2.7 3.5 1.4 4.2-2.7 1.4-4.3-4.4-1.4-4.2Z"/><path d="M89.7 658.7c1.2-.7 3.6 1.9 3.5 2.1-1.1 2.3-6.7-.2-3.5-2.1Z" style="fill:#94bdd7"/><path class="cls-26" d="M37.5 562.8c2.1-.8 3.1 2.1 1.4 2.8-2.1.9-3.1-2.2-1.4-2.8Z"/><path class="cls-23" d="M48.8 634.7c3.6-1.9 4.1 2.5 1.4 2.8-.2 0-2.8-2.1-1.4-2.8Z"/><path class="cls-44" d="M126.4 630.5c.2 0 2.8 2.1 1.4 2.8-3.6 1.9-4.1-2.5-1.4-2.8Z"/><path class="cls-26" d="M65 593.8c-2.8 0-4-.7-2.1-2.8 3-.6 2 2.8 2.1 2.8Z"/><path class="cls-41" d="m53 603.7.7 2.1-2.1.7-.7-.7 2.1-2.1z"/><path class="cls-13" d="M344.2 640.4c-2.8 3.5.9 3.5 1.4 4.2 2.3 3.4 2.9 4.6 4.2 8.5-6.1 4.3-3.8 7.6-4.2 8.5-.3.5-4.7 4.5-5.6 9.9-7 4.2-1.6-4.5-12.7 5.6-9.4-9.2 16.9-17.3 1.4-16.2 11.8-24.6 9.3-27 15.5-20.4Z"/><path class="cls-23" d="M1153.6 551.5c-.4.4-.8.9-1.4 1.4-23.3 8.3-66-37.1-78.3-38.1-2.3-.2-2.4.8-2.1 2.8-14.6-9.5-49.4-56-62-74-7.9-11.3-25.3-36.1-25.4-45.8 10 5.6 142.5 132.9 169.2 153.7Z"/><path class="cls-23" d="M984.4 397.9c0 9.7 17.5 34.5 25.4 45.8 12.6 18 47.4 64.5 62 74 44.1 74.2 43.3 43.1-34.5 16.9-96.7 55.5-44.9 49.8-88.8-31-5.6 3.3-72.7 54.3-74 50l17.6-30.3c-14.2 9.6-86.2 54.7-92.4 56.4-1.5.4-1.9 1.8-3.5 1.4-1.6-.4-5-6-6.3-7 63.5-60.4 128.1-119.7 192.5-179 2.1 1.5 2 2.7 2.1 2.8Z"/><path class="cls-41" d="M1052.8 516.3c2.9-.8 4.4 3.6 1.4 4.2-5.2 1-3.7-3.6-1.4-4.2Z"/><path d="M340 671.4c.9-5.3 5.4-9.4 5.6-9.9.9 4.9-1.6 7.4-5.6 9.9Z" style="fill:#687ba4"/><path class="cls-13" d="M932.2 641.8v-1.4c7.2-1.2 5.1-5.5 6.3-5.6 4.6-.4 14.5 44.8 20.4 50.7-52.4 6.9-104.4 15.9-156.5 24-.7-4.8 1.3-4 1.4-4.2 14.1-.7 29.7-4.2 44.4-7 1.7-1.9 8.5-30.7 12-33.1-2.2-8-7.3 5.8-4.2-7.8 8.6-7.8 8-14.7 8.5-15.5 2.1-3.7 6.1-6.3 6.3-11.3l10.6 26.1c12.3-1.3 3.8-12.7 11.3-16.9-7.5-9.2 10.1-31 12-44.4 6.7 21.9 11.6 38.7 16.9 57.8-13.3-4.8 3 2.9 3.5 3.5.4.5-9.5 9.1-.7 9.2 1.5 0 13.7-16.1 7.8-24Z"/><path class="cls-15" d="M901.9 636.1c3-.3 1.9 7.2-1.4 5.6-1.7-.8 1.1-5.6 1.4-5.6Z"/><path d="M911.8 685.5c3.8-.8 5.5 2.4 1.4 2.8-.2 0-2.9-2.2-1.4-2.8Z" style="fill:#7eade4"/><path class="cls-13" d="M397.8 710.8c-33 4.4-41.8-5-49.4-7-4.4-9.7-16.5-3.7-24.7-2.8l-2.1-9.9c12-3.1 22-4.8 32.4-12.7.8-.6 13.4-9 9.2-12.7-.2-.2-3.3 0-4.9 0-1.7-7 10.7-49.5 14.1-43 3.5 6.6 5.4 39.3 14.1 46.5-12.5-3.4 8.5 14.6 5.6 35.2 6.3 2.4 5.4 6 5.6 6.3Z"/><path d="M354.1 678.4c-10.4 7.9-20.4 9.6-32.4 12.7-10.8-5.6 13.3-4.6 21.9-8.5 4.8-2.2 9.6-12.2 10.6-4.2Z" style="fill:#8894a9"/><path class="cls-26" d="M370.3 655.9c3-1.3 4.1 4.5 1.4 4.2-.9 0-3.4-3.4-1.4-4.2Z"/><path class="cls-13" d="M843.4 627.7c1.8 2.6 14.2 21.9 14.1 23.3 0 .5-6 4.6-7.1 6.3-4.6 7.8 1.5 3.1 4.2 1.4 0 0 .8-.9 1.4-1.4-3.1 13.6 2-.3 4.2 7.8-3.5 2.5-10.3 31.2-12 33.1-14.8 2.9-30.3 6.3-44.4 7 3.8-8.6 7.1-18.5 9.9-24.7.5-1 5.9-5.3 5.6-5.6-1.2-2-5.3 1.2-5.6-2.8-.3-2.7 11.3-18.6 11.3-19.7 0-3.9-4.1 1-4.2-1.4 0-1.7 17.3-24.3 18.3-28.9 1.4 1.7 3 3.8 4.2 5.6Z"/><path class="cls-15" d="M864.5 641.8c-.4.8.1 7.7-8.5 15.5-.6.5-1.3 1.4-1.4 1.4l-4.2-1.4c1-1.7 7-5.9 7.1-6.3 0-1.4-12.3-20.6-14.1-23.3 3.4-3.8 9.4 12.2 21.2 14.1Z"/><path class="cls-41" d="M854.6 658.7c-2.7 1.7-8.8 6.4-4.2-1.4l4.2 1.4Z"/><path class="cls-40" d="M828.6 677c3.6-1.9 4.1 2.5 1.4 2.8-.2 0-2.8-2.1-1.4-2.8Z"/><path class="cls-23" d="M733.4 524.8c-4.1-1.9-52-16.4-54.3-8.5-5.4-.8-65.7-51.4-81.1-52.2-35.2-54.4-76.4-105.2-112.8-158.6-5-7.3-9.7-19.1-14.1-25.4-.9-1.2-5.5 5.2-4.2-7.8 16 8.9 231.9 220.8 266.5 252.3Z"/><path class="cls-15" d="M598 464.1c15.4.7 75.7 51.3 81.1 52.2 2.2-7.9 50.2 6.6 54.3 8.5 13.3 6.1 41.8 37.8 56.4 49.3 1.3 1 4.8 6.7 6.3 7 1.6.4 2-1 3.5-1.4 6.8 15.5 27.7 27.6 39.5 42.3-1 4.6-18.4 27.2-18.3 28.9.1 2.5 4.2-2.5 4.2 1.4 0 1.1-11.5 17.1-11.3 19.7.4 4.1 4.4.9 5.6 2.8.2.3-5.2 4.6-5.6 5.6-2.8 6.2-6.1 16.1-9.9 24.7 0 .2-2.1-.6-1.4 4.2-14.6 2.2-29.1 4.8-43.7 7-20.6 3.2-41.4 8.6-62 11.3-48.2 6.1-43 2.2-83.2 0l-22.6-33.8c4.4-3 6.5-1.7 7.1-3.5-.5-1.7-1-3.1-1.4-4.9-.3-1.6-10.9-25.8-12.7-29.6-1.3-2.8-2.7-2.6-2.8-2.8-1.4-2.9-12-20.8-11.3-21.9 5-7.1 10.2 9.4-4.2-21.9-5.2-11.3-9.5-23.2-16.2-33.8-2.7 0-15.4 28.3-17.6 32.4 0 .2-1.4.2-2.8 2.8-2 3.7-10.8 13.6-11.3 19-.6 7.3 7.5-6.1-1.4 16.2 1.2 14.3-14.2 23.3-19.7 40.9 0 .3-3.8 3.7-2.8 4.9 1.3 1.8 6.3-.6 9.9 2.1-1.3 1-14.7 23.1-16.9 26.8-28.7.6-57.4-4.5-86-5.6-.6-1.6-1.9-2.7-2.8-4.2-.2-.4.7-3.9-5.6-6.3 2.9-20.6-18.2-38.7-5.6-35.2-8.7-7.2-10.6-39.9-14.1-46.5-3.4-6.5-15.8 36-14.1 43-2 0-3.1 4.4-5.6 2.1-1.5-1.4 0-6.2-2.8-14.8-1.3-3.9-1.9-5.1-4.2-8.5 2.6-3.5-.5-3.3-1.4-4.2-6.2-6.5-3.7-4.2-15.5 20.4 15.5-1.1-10.8 7-1.4 16.2-3.2 2.9-6.8 16-15.5-2.1-2.4-5.1 2.4-4.8 1.4-7-.7-1.6-10-13.9-14.8-30.3-15.6 17.9-7.4 22-7.8 23.3-.1.4-2.4 1.6-4.2 7.8-1.9 0-3.2 4.4-5.6 2.1-1.7-1.6-3.4-22.4-16.2-40.2-2.5 0-14.1 28.8-13.4 30.3 1 2.3 4.7-2.3 5.6 0 1 2.6-14.7 10.4-4.2 16.9-7.8 6.4-8.1 14.6-14.1 23.3-1 1.4-2.1 2.7-2.8 4.2-11.6-.4-23.7-1.1-35.3-1.4-2.2-10.7-27.9-32.1-16.9-37.4-19.3-26.3-8.1-19.8-8.5-22.6-.2-1.3-14.3-17.2-14.1-18.3 1.5-8.8 19 9.2 0-12.7 2.8-4.5-5.7-25.7-8.5-31.7 54.4-29.4 109.5-58.1 161.5-91.6l-26.8 49.3c39.7-26.7 80.1-52.6 117-83.2 18.1 37 29.9 76.4 36.7 117l119.9-71.9c9.7-1.3 76.6 35.4 87.4 46.5-18-26.7-32.6-56.2-50.1-83.2Z"/><path class="cls-26" d="M631.2 543.1c6.8-.8-2.2 6.5 6.3 2.1-2.4 13.9-1.6 7.2-7.8 10.6-.4-9.2-3.9-2.5-4.9-4.9l6.3-7.8ZM721.4 622c6.4 1.2.4 12.5-4.2 8.5-4.7-4.1 3.6-8.6 4.2-8.5Z"/><path class="cls-41" d="M590.3 637.5c5.4-2.1 6.7 7.1 1.4 7-4.3 0-4.7-5.8-1.4-7ZM354.8 592.4c6.1-2.4 5.1 7 1.4 7-2.8 0-5.6-5.4-1.4-7ZM227.9 643.2c2.3-1.8 6.5 2.2 6.3 3.5-.8 6.2-12 .9-6.3-3.5ZM292.7 607.9c4.3-.1 4.6 6 1.4 7-5.6 1.8-5-6.9-1.4-7ZM766.5 637.5c4.5-1.4 6.7 4.4 2.8 5.6-4.5 1.4-6.7-4.4-2.8-5.6ZM657.9 564.2c3.5-2.6 7.3 3.5 4.2 5.6-3.5 2.6-7.3-3.5-4.2-5.6ZM656.5 710.8c.5-.3 3.1-.2 3.5.7 1.1 2.3-8.1 2.4-3.5-.7ZM345.6 644.6c-.5-.7-4.2-.8-1.4-4.2.9 1 4 .8 1.4 4.2ZM815.9 627.7c3.3.4.9 6.3-1.4 2.8-.9-1.4 1.3-2.8 1.4-2.8Z"/><path class="cls-23" d="M347.7 534.6c2.1-.8 3.1 2.1 1.4 2.8-2.1.9-3.1-2.2-1.4-2.8Z"/><path d="M481.7 633.3c.2 0 2.8 2.1 1.4 2.8-3.6 1.9-4.1-2.5-1.4-2.8Z" style="fill:#e9ecf9"/><path class="cls-23" d="M202.5 603.7c2.1-.8 3.1 2.1 1.4 2.8-2.1.9-3.1-2.2-1.4-2.8Z"/><path class="cls-41" d="m430.9 684.1 2.1.7-.7 2.1-.7-.7-.7-2.1z"/><path class="cls-23" d="m273 562.8.7 2.1-2.1.7-.7-.7 2.1-2.1z"/><path d="M466.9 272.4c-1.3 12.9 3.4 6.5 4.2 7.8 4.4 6.3 9.1 18.1 14.1 25.4C521.6 359 562.8 409.8 598 464.2c17.4 27 32.1 56.5 50.1 83.2-10.8-11.2-77.8-47.8-87.4-46.5l-119.9 71.9c-6.8-40.6-18.6-80-36.7-117-36.9 30.6-77.3 56.5-117 83.2l26.8-49.3c-52 33.6-107 62.2-161.5 91.6-.3-.7-6.6-7.9-8.5-14.1 0-.1 2.2-.5 0-2.8 109.1-95.7 213-197.5 320.8-294.6 2.1 1.5 2 2.7 2.1 2.8Z" style="fill:url(#linear-gradient)"/><path class="cls-41" d="M540.9 407.8c4.1 0 3.1 8.1-1.4 7-4.2-1-.2-7 1.4-7ZM574.8 483.9c2.8-.6 5 4.2 2.8 5.6-3.2 2.2-7.3-4.7-2.8-5.6Z"/><path class="cls-13" d="M286.4 668.5c-4.1 13.4-5.3 35.1-23.3 36.7-8.8.8-16.3-2.6-24.7-4.2 6-8.7 6.3-16.8 14.1-23.3-10.5-6.6 5.2-14.3 4.2-16.9-.9-2.3-4.6 2.3-5.6 0-.7-1.5 10.9-30.2 13.4-30.3 12.8 17.8 14.5 38.6 16.2 40.2 2.5 2.3 3.8-2 5.6-2.1Z"/><path class="cls-23" d="M270.2 660.1c4.3-.8 2.8 5.4 1.4 5.6-.7.1-5.4-4.9-1.4-5.6Z"/><path d="M1477.9 258.3c0 2.7.5 6.7 1.4 9.2 6.7 18.3 98 134.9 117 161.4 14.5 20.2 27.1 42.6 43 62-23.4-12.2-46.9-24.1-71.9-32.4-35.3 20.9-68.7 45.7-105.8 63.4-.5-13.2-28.6-99.7-35.3-100.1l-100.1 70.5-2.1-2.1c2.1-2.6 25.8-39 20.4-38.8-68.5 40.7-138.5 80.8-209.4 116.3 6.2-4.4 11.3-9.8 16.9-14.8.6-.5 1-1 1.4-1.4 97.7-88.3 192.3-180.9 291.2-267.8 10.3-9.1 30.6-28.7 33.1-25.4Z" style="fill:url(#linear-gradient-2)"/><path class="cls-41" d="M1540.6 404.9c7 .9-2 10.3-3.5 3.5 0-.2 3.3-3.6 3.5-3.5Z"/><path class="cls-23" d="M1678.1 440.2c-2.2 4.1-2.7 7.5-4.2 11.3-.2.4-4 3.3-4.2 7-24.1-11.8-48-25-73.3-29.6-19.1-26.5-110.3-143.1-117-161.4-.9-2.4-1.5-6.5-1.4-9.2l200.2 181.9Z"/><path class="cls-41" d="M1678.1 455.7c-2.2 1.1-4.5 2.7-4.2 5.6-4.6-2.2-4-2.7-4.2-2.8.2-3.7 4.1-6.7 4.2-7l4.2 4.2ZM1630.9 404.9c3.3.4.9 6.3-1.4 2.8-.9-1.4 1.3-2.8 1.4-2.8Z"/><path class="cls-15" d="M1596.3 428.9c25.4 4.6 49.2 17.8 73.3 29.6.2.1-.4.6 4.2 2.8 6.4 3.1 12.6 7 19.7 8.5-.6 1.7 1.1 5.3-1.4 8.5-8 2.2 2.4 2.1-8.5 9.9-.2.1-3.8-2.6-4.2.7-.4 2.9 2.9 3.3 2.8 3.5-.1.4.2 1 0 1.4-1.2 3.2-9.7 11.7-12.7 16.2 1.2 5.6 3.2 2 4.2 2.1l-46.5 72.6 45.1 2.1c-17.5-3.2-20.7 5.6-8.5 14.1-.1.8-.2 2.1 0 2.8-3.5 2-6 5.3-8.5 8.5l-64.9 5.6c-12.9-31.8-8-.4-28.9-5.6-3.2 1.4-3.2 9.4-7.8 11.3-5.7 2.3-105.9 11.3-122 12.7-11.8 1-13.4-1.5-14.1-1.4-1.5.1-25.1 9.1-28.2 1.4-3.4 7.8-15.1 1.9-24.7 5.6-.2-.3-.9.5-4.2-5.6-2.3-4.2-5-8.4-7.1-12.7 0 0-.5.6-1.4-1.4-14.4-30.3-2.6-14.8-1.4-21.9.4-2.1-17.1-32.5-19.7-37.4-3.7-6.9-6.9-14.2-10.6-21.1-7.2 11.3-12.7 23.5-19 35.2-3.1 5.7-6.9 11.1-9.9 16.9-.2-.3-4.9-3.3-5.6-4.9-1.5-3.7-6.5-28.7-9.2-28.9-12.1 14.6-13.3 33.3-23.3 47.2 3.4 1.9-.8 6.4-3.5 6.3l-16.9-43.7-23.3 47.9c-2.5 3.6-1.8 7 2.8 7-10.8 25.9 1.4 10.7 1.4 14.8 0 1.2-12.5 6.5-11.3 20.4-81.7 6.4-162.8 14.7-243.9 25.4-5.9-5.9-15.8-51.1-20.4-50.7-1.3.1.9 4.4-6.3 5.6-.1 0 .5-2.7-.7-2.8-9.4-.9.4 3.9.7 4.2 5.9 7.8-6.3 24-7.8 24-8.8 0 1.1-8.7.7-9.2-.5-.7-16.8-8.3-3.5-3.5-5.4-19.1-10.2-35.9-16.9-57.8-1.9 13.4-19.5 35.2-12 44.4-7.5 4.2 1 15.6-11.3 16.9l-10.6-26.1c-.3 4.9-4.3 7.6-6.3 11.3-11.8-1.9-17.7-17.9-21.2-14.1-1.3-1.9-2.8-3.9-4.2-5.6-11.8-14.7-32.7-26.8-39.5-42.3 6.2-1.7 78.1-46.8 92.4-56.4l-17.6 30.3c1.4 4.3 68.5-46.7 74-50 44 80.8-7.9 86.5 88.8 31 77.9 26.2 78.6 57.3 34.5-16.9-.2-2.1-.2-3 2.1-2.8 12.2 1 54.9 46.4 78.3 38.1-5.6 5-10.8 10.4-16.9 14.8 70.9-35.5 140.8-75.6 209.4-116.3 5.4-.2-18.3 36.1-20.4 38.8l2.1 2.1 100.1-70.5c6.7.4 34.8 86.9 35.3 100.1 37-17.7 70.4-42.5 105.8-63.4 25 8.3 48.5 20.3 71.9 32.4-15.9-19.4-28.5-41.8-43-62Z"/><path class="cls-41" d="M1672.5 586.8c3.4 4.6-.8 4.9-1.4 5.6-2.9 3.9-6.3 4.2-7.1 8.5-12.3-8.5-9.1-17.2 8.5-14.1ZM914.6 589.6c5.9-2.1 8.8 5.3 4.2 7-6.1 2.4-6.9-6.1-4.2-7ZM1006.2 631.9c4.3 0 4.7 5.8 1.4 7-5.4 2.1-6.7-7.1-1.4-7ZM941.4 582.6c2.6-.8 7.4 5.6 2.8 7-5 1.6-6.7-5.8-2.8-7ZM956.9 592.4c.7-.1 5.5 5 1.4 5.6-5.8 1-3.5-5.2-1.4-5.6ZM932.2 640.4v1.4c-.3-.4-10.1-5.1-.7-4.2 1.2.1.6 2.8.7 2.8Z"/><path class="cls-26" d="M1604.1 602.3c3-.7 6.5 7.3 2.8 8.5-2.5.8-6.5-7.6-2.8-8.5Z"/><path class="cls-41" d="M1402.4 603.7c4-1.5 6 5 2.8 5.6-5.9 1.2-4.6-5-2.8-5.6Z"/><path class="cls-23" d="M1374.2 475.4c6.5-2 1.2 8.7-1.4 7-2-1.2.9-6.9 1.4-7ZM1643.6 495.2c3-.4 4 5.4 1.4 5.6-4.2.3-4.2-5.2-1.4-5.6Z"/><path class="cls-41" d="m1683.8 488.1-1.4 4.2c0-.2-3.2-.7-2.8-3.5.5-3.3 4.1-.6 4.2-.7Z"/><path class="cls-26" d="M1590 553c4.8.4.1 6-1.4 2.8-.8-1.5 1.2-2.8 1.4-2.8Z"/><path class="cls-41" d="M1202.2 585.4c3.3.4.9 6.3-1.4 2.8-.9-1.4 1.3-2.8 1.4-2.8Z"/><path class="cls-23" d="M1595.6 521.9c2.1-.8 3.1 2.1 1.4 2.8-2.1.9-3.1-2.2-1.4-2.8Z"/><path class="cls-40" d="M1320.7 520.5c2.1-.8 3.1 2.1 1.4 2.8-2.1.9-3.1-2.2-1.4-2.8Z"/><path class="cls-23" d="M1509.6 536c3.6.5 4.6 3.3 1.4 2.8-.5 0-2.9-2.3-1.4-2.8ZM1557.6 524.8l.7 2.1-2.2.7-.7-.7 2.2-2.1z"/><path class="cls-41" d="m1244.5 558.6 1.4 1.4v1.4h-1.4v-2.8zM1389.8 574.1l2.1.7-2.1 2.1-.7-.7.7-2.1z"/><path class="cls-23" d="m1516.7 585.4.7 2.1-2.1.7-.8-.7 2.2-2.1z"/><path class="cls-13" d="M1291.8 593.8c.8 1.7 2.9 11.8 4.2 14.1-1.6.1-2.2 1.5-2.8 2.8-5.3 12.2-13.9 19.5-5.6 26.1l-9.9 19h-1.4c-24.3 2.1-49 2.3-73.3 4.2-1.2-13.9 11.3-19.2 11.3-20.4 0-4.1-12.2 11.1-1.4-14.8 1.4-3.4 5.6-4.7-2.8-7l23.3-47.9 16.9 43.7c2.8 0 6.9-4.5 3.5-6.3 9.9-13.9 11.2-32.6 23.3-47.2 2.7.2 7.6 25.2 9.2 28.9.7 1.7 5.5 4.6 5.6 4.9Z"/><path class="cls-41" d="M1212.8 624.8c-4.7 0-5.4-3.5-2.8-7 8.4 2.4 4.2 3.7 2.8 7Z"/><path class="cls-44" d="M1250.2 616.4c4.6-1.3 5.1 4.2 5.6 4.2 24.8-7-11 10.2-7.8-2.1 0-.2 1.9-2.1 2.1-2.1Z"/><path class="cls-39" d="M1328.4 757.4c4.7 4.6 2 4.8 15.5 4.2v11.3c-1.5 0-9.3 3.1-28.9 2.8-1.1 0-.6-2.8-.7-2.8V763c.7 0 11.1-4.4 12.7-5.6h1.4Z"/><path class="cls-25" d="M1303 726.3c5.1 6.3 14.5 4 22.6 5.6-4.2 6.9 4.2 12 5.6 2.8 1.2.3 6 .3 11.3 1.4 3 .6 8.5 4.1 9.2 4.2 2.1.4 24.1 3.2 25.4 2.8 4.9-1.3 7.9-6 4.9-11.3 3.4.2 4.1 2.6 4.2 0 1.4 2.7 13.3 19.7 12 21.1-14.4 1.9-42.9 8-54.3 8.5-13.5.6-10.8.3-15.5-4.2-.2-.2-3-7-1.4 0-1.5 1.3-12 5.6-12.7 5.6-.1 0 .4-2.8-.7-2.8-22.8-.6-45.1-5.2-67.7-7l-2.1-2.1c4.8-6.1 7.9-13.5 11.3-20.4 8.3 1.8 25.6-4.9 35.3-8.5.6.3 11.2 3.8 12.7 4.2Z"/><path class="cls-35" d="M1360.9 636.1c3.3 6.1 4.1 5.3 4.2 5.6.9 1.7 1.9 3.8 2.8 5.6 9.7 18.7.8 5.1-7.1 8.5-2.2 21.9-74.7 41.3-87.4 40.9-1.6 0-15.2-2.8-15.5-3.5 6.9-13.8 21.5-25.1 15.5-31.7 1.3 0 1.5-1.4 2.8-1.4.2 0 2.8 2.8 3.5 2.8.6 0 9.3-4.2 9.9-4.2.7 0 1.4 4.2 12.7 4.2.1-9.2 5.3-2.6 13.4-9.9h1.4c13.9 2.2 5.9-3.9 9.2-5.6 1.1-.6 12.3.7 21.9-11.3h12.7Z"/><path class="cls-4" d="M1362.3 665.7c-4.6 1.3-8.4 8.9-14.1 12.7-18.8 12.4-44 13.9-45.8 15.5-5.2 4.8 12.8 2.3-21.9 7-3.3.4-6.7 0-9.9 1.4 1-1.8 1.9-3.8 2.8-5.6 12.7.4 85.2-19 87.4-40.9 0 2.4.7 8.2 1.4 9.9Z"/><path class="cls-8" d="M1280.5 701c12.1 15.6 32 25.1 52.2 21.1l1.4 2.8c-3.4 1-6.5 8-31 1.4-1.5-.4-12.1-3.9-12.7-4.2-8.1-4.4-12.9-12.6-19.7-18.3.2-.3-.2-1 0-1.4 3.2-1.5 6.6-1 9.9-1.4Z"/><path class="cls-25" d="M1290.4 722.1c-9.6 3.6-26.9 10.2-35.3 8.5 5.1-10.6 9.6-17.1 15.5-26.8 6.8 5.7 11.6 13.9 19.7 18.3ZM1369.3 693.9c.3 2.2-.5 6.1 0 7-4.2 4.5-8.9 6.9-14.1 9.9l-24.7-8.5 20.4 9.9c-5.1 2.7-12.7 8.8-18.3 9.9-20.2 4-40.1-5.6-52.2-21.1 34.6-4.7 16.7-2.3 21.9-7 1.8-1.7 27.1-3.1 45.8-15.5 6.8 6.4 22.5 7.9 21.2 15.5Z"/><path class="cls-25" d="M1362.3 665.7c5.2 12.7 34.4 35.7 7.1 28.2 1.4-7.6-14.3-9.1-21.2-15.5 5.7-3.7 9.5-11.3 14.1-12.7Z"/><path class="cls-4" d="M1372.1 703.8c-13.3 12.5-21.1 16.2-38.1 21.1l-1.4-2.8c5.6-1.1 13.3-7.2 18.3-9.9.2-.1 1.3.3 4.2-1.4 5.2-3 9.9-5.4 14.1-9.9 1 2 1.8.8 2.8 2.8Z"/><path d="M1328.4 757.4h-1.4c-1.6-7 1.2-.2 1.4 0Z" style="fill:#81a46b"/><path class="cls-28" d="M1331.2 562.8c2.6 4.9 20.1 35.3 19.7 37.4-1.2 7-13-8.5 1.4 21.9-.9.4-4.1 2.6-4.2 2.8-5.3 2.7-7.2-4.3-19.7-14.1 0-4.3-2.9-5.5-4.2-1.4-5.4-3.6-6.2-9.7-11.3-8.5 11.2-20.5-14.8 10.4-16.2 9.9-1.3-.6-.4-2.3-.7-2.8-1.4-2.3-3.4-12.4-4.2-14.1 2.9-5.8 6.8-11.2 9.9-16.9 1.7-.3 4.3.4 5.6 0 11.9 28.7 12.3-1.2 12.7-2.8 1.4-5.4 0-7.1 11.3-11.3Z"/><path class="cls-4" d="M1331.2 562.8c-11.2 4.2-9.9 5.9-11.3 11.3-3.6-3.1-8.9 1.6-12.7 2.8-1.4.4-3.9-.3-5.6 0 6.3-11.7 11.8-24 19-35.2 3.7 7 6.9 14.2 10.6 21.1Z"/><path class="cls-20" d="M1353.8 623.4c-1.7 3.5-3.7 10.3-5.6 12.7-9.5 11.9-20.7 10.7-21.9 11.3-3.2 1.7 4.7 7.9-9.2 5.6 3.2-7.4 8.3-7.2 12.7-9.9 4.9-3.1 9.9-4.7 14.1-9.2 1.9-2 3.5-8 4.2-9.2.1-.2 3.4-2.4 4.2-2.8.9 2 1.4 1.3 1.4 1.4Z"/><path d="M1360.9 636.1h-12.7c1.9-2.4 3.9-9.2 5.6-12.7 2.1 4.3 4.8 8.5 7.1 12.7Z" style="fill:#649463"/><path class="cls-4" d="M1304.5 650.2c.6 7.2 6.8-.5 10.6 0 1.2.2.6 2.8.7 2.8-8.1 7.2-13.3.7-13.4 9.9-11.2 0-12-4.2-12.7-4.2-.5 0-9.3 4.2-9.9 4.2-.7 0-3.3-2.8-3.5-2.8v-4.2h1.4c8.2-.7 19.8 1.4 26.8-5.6Z"/><path class="cls-8" d="M1382 732c3 5.3 0 9.9-4.9 11.3-1.2.3-23.2-2.4-25.4-2.8-.7-.1-6.2-3.6-9.2-4.2.3-7.6 18.9-5.1 39.5-4.2Z"/><path class="cls-41" d="M1331.2 734.8c-1.4 9.2-9.8 4.1-5.6-2.8 7.2 1.5 5.3 2.7 5.6 2.8Z"/><path class="cls-33" d="M1329.8 643.2c-4.3 2.7-9.4 2.5-12.7 9.9h-1.4c-.1 0 .5-2.7-.7-2.8-3.8-.5-10 7.2-10.6 0 1-1-4.5-5.1 4.2-6.3v-4.2l-10.6-23.3c12.6 8.2 14.3 27.6 31.7 26.8Z"/><path class="cls-22" d="M1355.2 710.8c-3 1.7-4 1.3-4.2 1.4l-20.4-9.9 24.7 8.5Z"/><path class="cls-22" d="M1386.2 732c-.2 2.6-.8.2-4.2 0-20.6-.9-39.2-3.4-39.5 4.2-5.3-1.1-10-1.1-11.3-1.4-.3 0 1.6-1.3-5.6-2.8-8-1.7-17.5.7-22.6-5.6 24.5 6.6 27.6-.4 31-1.4 17-4.9 24.8-8.6 38.1-21.1 4.8 9.4 9.3 18.8 14.1 28.2Z"/><path d="M1339 727.8c1-.8 4.5.1 3.5 2.1-1.1 2.2-6.6 0-3.5-2.1Z" style="fill:#ecdbd6"/><path class="cls-28" d="M1324.2 609.3c2.2 1.5 4.1 1.3 4.2 1.4 12.6 9.8 14.4 16.8 19.7 14.1-.7 1.2-2.4 7.2-4.2 9.2-4.2 4.5-9.2 6.1-14.1 9.2-17.4.9-19.1-18.6-31.7-26.8l10.6 23.3v4.2c-8.8 1.3-3.2 5.3-4.2 6.3-7 7-18.6 4.9-26.8 5.6l9.9-19c-8.2-6.5.3-13.9 5.6-26.1-1 10.4 19.1-8.7 19.7-9.9 5.1-1.2 5.9 4.8 11.3 8.5Z"/><path class="cls-33" d="M1312.9 600.9c-.6 1.2-20.7 20.3-19.7 9.9.6-1.3 1.2-2.7 2.8-2.8.3.5-.6 2.2.7 2.8 1.4.5 27.4-30.4 16.2-9.9Z"/><path class="cls-4" d="M1320 574.1c-.4 1.6-.7 31.5-12.7 2.8 3.8-1.2 9.1-6 12.7-2.8Z"/><path class="cls-28" d="M1328.4 610.8c-.2-.1-2 .1-4.2-1.4 1.4-4.1 4.2-2.9 4.2 1.4Z"/></g></g></svg>