<svg xmlns="http://www.w3.org/2000/svg" width="246" height="29" viewBox="0 0 246 29" fill="none">
<path fill-rule="evenodd" clip-rule="evenodd" d="M246 7.86328L244.983 9.93053C243.967 11.9978 244.033 16.5458 242 19.0265C240.17 21.5072 237.83 18.613 236 19.0265C233.967 19.4399 231.533 19.0265 229.5 17.3727C227.67 15.7188 225.83 14.8809 224 16.1212C221.967 17.3616 220.533 16.9592 218.5 20.2668C217.992 21.0937 217.83 22.3341 216 20.2668C213.967 18.1996 216 21.9206 212.5 16.6212C211.29 14.7896 206.5 12.6212 204 14.4785C202.388 15.676 199.243 20.2668 193.743 22.3341C190.432 23.5785 190.5 21.6212 190 20.2668C189.234 18.1929 185.83 14.4785 184 15.3054C181.967 16.1323 182.153 14.8919 179 15.3054C176.808 15.5928 173 18.613 172 20.2668C170.864 22.1452 169.033 28.5358 167 28.1224C164.967 27.7089 163.533 26.1212 161.5 26.1212C159.67 26.1212 158.83 24.4013 157 24.8148C154.967 25.2282 153.533 21.9206 151.5 21.9206C149.67 21.9206 146.265 20.6803 144.435 21.0937C142.402 21.5072 137.623 13.6516 135.59 15.3054C133.76 16.9592 131.727 18.613 129.897 19.0265C127.863 19.4399 126.033 18.613 124 20.2668C121.967 21.9206 120.137 26.0551 118.103 25.2282C116.273 24.4013 114.24 18.613 112.41 17.3727C110.377 16.1323 108.547 19.4399 106.513 19.0265C104.683 18.613 102.65 14.4785 100.82 14.8919C98.7867 15.3054 96.9567 20.2668 94.9233 23.9879C93.0933 27.7089 91.06 30.1896 89.23 28.1224C87.1967 26.0551 85.3667 19.4399 83.3333 19.0265C81.3 18.613 79.47 24.4013 77.4367 25.2282C75.6067 26.0551 73.5733 21.9206 71.7433 21.9206C69.71 21.9206 67.88 26.0551 65.8467 24.8148C64.0167 23.5744 61.9833 16.9592 60.1533 14.4785C58.12 11.9978 56.29 13.6516 54.2567 14.065C52.4267 14.4785 50.3933 13.6516 48.5633 13.6516C46.53 13.6516 44.7 14.4785 42.6667 16.1323C40.6333 17.7861 38.8033 20.2668 36.77 19.8534C34.94 19.4399 32.9067 16.1323 31.0767 14.4785C29.0433 12.8247 27.2133 12.8247 25.18 14.065C23.35 15.3054 21.3167 17.7861 19.4867 19.8534C17.4533 21.9206 15.6233 23.5744 13.59 22.7475C11.76 21.9206 9.72667 18.613 7.89667 17.7861C5.86333 16.9592 4.03333 11.9978 3.01667 12.8247L2 7.86328H3.01667C4.03333 7.86328 5.86333 7.86328 7.89667 7.86328C9.72667 7.86328 11.76 7.86328 13.59 7.86328C15.6233 7.86328 17.4533 7.86328 19.4867 7.86328C21.3167 7.86328 23.35 7.86328 25.18 7.86328C27.2133 7.86328 29.0433 7.86328 31.0767 7.86328C32.9067 7.86328 34.94 7.86328 36.77 7.86328C38.8033 7.86328 40.6333 7.86328 42.6667 7.86328C44.7 7.86328 46.53 7.86328 48.5633 7.86328C50.3933 7.86328 52.4267 7.86328 54.2567 7.86328C56.29 7.86328 50.5967 7.86328 57.205 5.83047C62.2883 4.59012 61.78 5.10693 63.61 5.10693C65.6433 5.10693 69.71 5.10693 71.7433 5.10693C73.5733 5.10693 75.6067 7.86328 77.4367 7.86328C79.47 7.86328 81.3 7.86328 83.3333 7.86328C85.3667 7.86328 87.1967 7.86328 89.23 7.86328C91.06 7.86328 93.0933 7.86328 94.9233 7.86328C96.9567 7.86328 98.7867 7.86328 100.82 7.86328C102.65 7.86328 104.683 7.86328 106.513 7.86328C108.547 7.86328 110.377 7.86328 112.41 7.86328C114.24 7.86328 116.273 7.86328 118.103 7.86328C120.137 7.86328 121.967 7.86328 124 7.86328C126.033 7.86328 125.627 6.20947 127.66 6.20947C129.49 6.20947 136.2 5.10693 138.03 5.10693C140.063 5.10693 142.808 4.59012 144.435 6.20947C146.265 6.20947 145.35 7.86328 147.18 7.86328C149.213 7.86328 154.093 5.83047 156.127 5.83047C157.957 5.83047 159.871 5.10693 163.447 5.10693C165.48 5.10693 168.53 5.83047 170.563 5.83047C172.597 5.83047 172.393 7.07083 174.427 7.07083C176.257 7.07083 174.427 7.86328 176.257 7.86328C178.29 7.86328 180.12 7.86328 182.153 7.86328C183.983 7.86328 186.017 7.86328 187.847 7.86328C189.88 7.86328 191.71 6.20947 193.743 6.20947C195.573 6.20947 197.607 7.86328 199.437 7.86328C201.47 7.86328 203.3 7.86328 205.333 7.86328C207.367 7.86328 209.197 7.86328 211.23 7.86328C213.06 7.86328 215.093 7.86328 216.923 7.86328C218.957 7.86328 220.787 7.86328 222.82 7.86328C224.65 7.86328 226.683 7.86328 228.513 7.86328C230.547 7.86328 232.377 7.86328 234.41 7.86328C236.24 7.86328 238.273 7.86328 240.103 7.86328C242.137 7.86328 243.967 7.86328 244.983 7.86328H246Z" fill="#E3E3E3"/>
<path fill-rule="evenodd" clip-rule="evenodd" d="M244 6.75634L242.983 8.8236C241.967 10.8909 242.033 15.4388 240 17.9195C238.17 20.4002 235.83 17.5061 234 17.9195C231.967 18.333 229.533 17.9195 227.5 16.2657C225.67 14.6119 223.83 13.774 222 15.0143C219.967 16.2547 218.533 15.8523 216.5 19.1599C215.992 19.9868 215.83 21.2271 214 19.1599C211.967 17.0926 214 20.8137 210.5 15.5143C209.29 13.6827 204.5 11.5143 202 13.3716C200.388 14.5691 197.243 19.1599 191.743 21.2271C188.432 22.4716 188.5 20.5143 188 19.1599C187.234 17.0859 183.83 13.3716 182 14.1985C179.967 15.0254 180.153 13.785 177 14.1985C174.808 14.4859 171 17.5061 170 19.1599C168.864 21.0382 167.033 27.4289 165 27.0155C162.967 26.602 161.533 25.0143 159.5 25.0143C157.67 25.0143 156.83 23.2944 155 23.7078C152.967 24.1213 151.533 20.8137 149.5 20.8137C147.67 20.8137 144.265 19.5733 142.435 19.9868C140.402 20.4002 135.623 12.5447 133.59 14.1985C131.76 15.8523 129.727 17.5061 127.897 17.9195C125.863 18.333 124.033 17.5061 122 19.1599C119.967 20.8137 118.137 24.9482 116.103 24.1213C114.273 23.2944 112.24 17.5061 110.41 16.2657C108.377 15.0254 106.547 18.333 104.513 17.9195C102.683 17.5061 100.65 13.3716 98.82 13.785C96.7867 14.1985 94.9567 19.1599 92.9233 22.8809C91.0933 26.602 89.06 29.0827 87.23 27.0155C85.1967 24.9482 83.3667 18.333 81.3333 17.9195C79.3 17.5061 77.47 23.2944 75.4367 24.1213C73.6067 24.9482 71.5733 20.8137 69.7433 20.8137C67.71 20.8137 65.88 24.9482 63.8467 23.7078C62.0167 22.4675 59.9833 15.8523 58.1533 13.3716C56.12 10.8909 54.29 12.5447 52.2567 12.9581C50.4267 13.3716 48.3933 12.5447 46.5633 12.5447C44.53 12.5447 42.7 13.3716 40.6667 15.0254C38.6333 16.6792 36.8033 19.1599 34.77 18.7464C32.94 18.333 30.9067 15.0254 29.0767 13.3716C27.0433 11.7178 25.2133 11.7178 23.18 12.9581C21.35 14.1985 19.3167 16.6792 17.4867 18.7464C15.4533 20.8137 13.6233 22.4675 11.59 21.6406C9.76 20.8137 7.72667 17.5061 5.89667 16.6792C3.86333 15.8523 2.03333 10.8909 1.01667 11.7178L0 6.75634H1.01667C2.03333 6.75634 3.86333 6.75634 5.89667 6.75634C7.72667 6.75634 9.76 6.75634 11.59 6.75634C13.6233 6.75634 15.4533 6.75634 17.4867 6.75634C19.3167 6.75634 21.35 6.75634 23.18 6.75634C25.2133 6.75634 27.0433 6.75634 29.0767 6.75634C30.9067 6.75634 32.94 6.75634 34.77 6.75634C36.8033 6.75634 38.6333 6.75634 40.6667 6.75634C42.7 6.75634 44.53 6.75634 46.5633 6.75634C48.3933 6.75634 50.4267 6.75634 52.2567 6.75634C54.29 6.75634 48.5967 6.75634 55.205 4.72354C60.2883 3.48319 59.78 4 61.61 4C63.6433 4 67.71 4 69.7433 4C71.5733 4 73.6067 6.75634 75.4367 6.75634C77.47 6.75634 79.3 6.75634 81.3333 6.75634C83.3667 6.75634 85.1967 6.75634 87.23 6.75634C89.06 6.75634 91.0933 6.75634 92.9233 6.75634C94.9567 6.75634 96.7867 6.75634 98.82 6.75634C100.65 6.75634 102.683 6.75634 104.513 6.75634C106.547 6.75634 108.377 6.75634 110.41 6.75634C112.24 6.75634 114.273 6.75634 116.103 6.75634C118.137 6.75634 119.967 6.75634 122 6.75634C124.033 6.75634 123.627 5.10254 125.66 5.10254C127.49 5.10254 134.2 4 136.03 4C138.063 4 140.808 3.48319 142.435 5.10254C144.265 5.10254 143.35 6.75634 145.18 6.75634C147.213 6.75634 152.093 4.72354 154.127 4.72354C155.957 4.72354 157.871 4 161.447 4C163.48 4 166.53 4.72354 168.563 4.72354C170.597 4.72354 170.393 5.96389 172.427 5.96389C174.257 5.96389 172.427 6.75634 174.257 6.75634C176.29 6.75634 178.12 6.75634 180.153 6.75634C181.983 6.75634 184.017 6.75634 185.847 6.75634C187.88 6.75634 189.71 5.10254 191.743 5.10254C193.573 5.10254 195.607 6.75634 197.437 6.75634C199.47 6.75634 201.3 6.75634 203.333 6.75634C205.367 6.75634 207.197 6.75634 209.23 6.75634C211.06 6.75634 213.093 6.75634 214.923 6.75634C216.957 6.75634 218.787 6.75634 220.82 6.75634C222.65 6.75634 224.683 6.75634 226.513 6.75634C228.547 6.75634 230.377 6.75634 232.41 6.75634C234.24 6.75634 236.273 6.75634 238.103 6.75634C240.137 6.75634 241.967 6.75634 242.983 6.75634H244Z" fill="#F4F4F4"/>
<path fill-rule="evenodd" clip-rule="evenodd" d="M0 7.74221L3.86333 5.53713C5.89667 5.2615 8.54 4.15896 12.81 4.15896C17.08 4.15896 21.35 4.71023 25.62 4.29678C29.89 3.88333 34.16 2.50516 38.43 2.09171C42.9033 1.67826 47.1733 2.22952 51.4433 2.22952C55.7133 2.22952 59.9833 1.67826 64.2533 1.54044C68.5233 1.40262 72.7933 1.67826 77.0633 1.54044C81.3333 1.40262 85.6033 0.851353 89.8733 1.40262C94.1433 1.95389 98.4133 3.60769 102.683 4.02115C106.953 4.4346 111.223 3.60769 115.493 2.78079C119.763 1.95389 124.237 1.12699 128.507 0.713536C132.777 0.300084 137.047 0.300084 141.317 0.713536C145.587 1.12699 149.857 1.95389 154.127 2.09171C158.397 2.22952 162.667 1.67826 166.937 2.22952C171.207 2.78079 175.477 4.4346 179.747 4.71023C184.017 4.98586 188.287 3.88333 192.557 3.46988C196.827 3.05643 201.097 3.33206 205.57 3.60769C209.84 3.88333 214.11 4.15896 218.38 3.46988C222.65 2.78079 226.92 1.12699 231.19 0.300084C235.46 -0.526818 238.815 0.300084 240.34 3.46988L244 7.74221L241.5 16C240.34 22 230.27 9.05147 226 9.05147C221.73 9.05147 219.77 13.8751 215.5 13.8751C211.23 13.8751 210.77 10.2918 206.5 10.2918C202.027 10.2918 195.77 12.5 191.5 12.5C187.23 12.5 183.27 9.05147 179 9.05147C174.73 9.05147 167.27 22 163 22C158.73 22 155 17.5 148.5 17.5C142 17.5 141.317 10.2918 135 10.2918C127.169 11.1877 122.5 18.5 117 17.5C112.73 17.5 111.77 13 107.5 13C103.23 13 103.27 10 99 10C94.73 10 94.1433 17.5 89.8733 17.5C85.6033 17.5 86.27 10 82 10C77.73 10 78.77 17.5 74.5 17.5C70.23 17.5 69.27 11.2221 65 11.2221C60.73 11.2221 55.7133 9.05147 51.4433 9.05147C47.1733 9.05147 40.4733 12 36 12C31.73 12 29.89 7.74221 25.62 7.74221C21.35 7.74221 15.77 14.702 11.5 14.702C7.23 14.702 4.27 7.74221 2.23667 7.74221H0Z" fill="white"/>
</svg>